<svg xmlns="http://www.w3.org/2000/svg" width="11.945" height="15.115" viewBox="0 0 11.945 15.115">
  <g id="Group_20314" data-name="Group 20314" transform="translate(0 -16.02)">
    <g id="Group_20313" data-name="Group 20313" transform="translate(0 16.02)">
      <path id="Path_101761" data-name="Path 101761" d="M11.7,23.05.606,16.073a.36.36,0,0,0-.51.163.749.749,0,0,0-.01.714l3.647,6.628L.086,30.205a.751.751,0,0,0,.009.714.4.4,0,0,0,.332.216.332.332,0,0,0,.178-.053L11.7,24.105a.686.686,0,0,0,0-1.056Z" transform="translate(0 -16.02)" fill="#fff"/>
    </g>
  </g>
</svg>
