<svg xmlns="http://www.w3.org/2000/svg" width="2078" height="1219.951" viewBox="0 0 2078 1219.951">
  <path id="Union_1" data-name="Union 1" d="M-8651,811.951c0-55.741,28.466-108.872,80-157.272V57.4s113.682,76.134,288.993,61.345,198.548-78.416,408.877-88.605c104.489-5.063,160.079,6.824,216.749,18.708,57.4,12.039,115.909,24.078,227.463,18.507C-7207.23,56.273-7160.456.686-6976.292.011-6729.562-.9-6651,57.4-6651,57.4V656.572c50.265,47.889,78,100.366,78,155.379,0,225.331-465.177,408-1039,408S-8651,1037.283-8651,811.951Z" transform="translate(8651 0)" fill="#fff6f8"/>
</svg>
