<svg xmlns="http://www.w3.org/2000/svg" xmlns:xlink="http://www.w3.org/1999/xlink" width="643.221" height="250.859" viewBox="0 0 643.221 250.859">
  <defs>
    <clipPath id="clip-path">
      <rect y="196" width="643.221" height="250.859" fill="none"/>
    </clipPath>
    <clipPath id="clip-path-2">
      <rect id="Rectangle_374" data-name="Rectangle 374" width="428.859" height="643.221" fill="#e1003e"/>
    </clipPath>
    <clipPath id="clip-path-4">
      <rect id="Rectangle_372" data-name="Rectangle 372" width="428.861" height="643.221" fill="#e1003e"/>
    </clipPath>
  </defs>
  <g id="Scroll_Group_2" data-name="Scroll Group 2" transform="translate(0 -196)" clip-path="url(#clip-path)" style="mix-blend-mode: normal;isolation: isolate">
    <g id="Group_3727" data-name="Group 3727" transform="translate(643.221) rotate(90)" opacity="0.15">
      <g id="Group_1512" data-name="Group 1512" clip-path="url(#clip-path-2)">
        <g id="Group_1511" data-name="Group 1511">
          <g id="Group_1510" data-name="Group 1510" clip-path="url(#clip-path-2)">
            <g id="Group_1509" data-name="Group 1509" transform="translate(0)" opacity="0.51">
              <g id="Group_1508" data-name="Group 1508">
                <g id="Group_1507" data-name="Group 1507" clip-path="url(#clip-path-4)">
                  <path id="Path_8428" data-name="Path 8428" d="M403.511,446.854A321.5,321.5,0,0,1,107.25,643.222H81.915a81.915,81.915,0,1,1,0-163.829h23.808c87.216,0,159.064-70.12,159.307-157.334s-70.63-158.23-157.78-158.23H81.915A81.915,81.915,0,1,1,81.915,0H107.25A321.765,321.765,0,0,1,403.511,196.369a322.059,322.059,0,0,1,0,250.485" transform="translate(0 0)" fill="#e1003e"/>
                </g>
              </g>
            </g>
          </g>
        </g>
      </g>
    </g>
  </g>
</svg>
