<svg xmlns="http://www.w3.org/2000/svg" xmlns:xlink="http://www.w3.org/1999/xlink" width="31.107" height="31.107" viewBox="0 0 31.107 31.107">
  <defs>
    <clipPath id="clip-path">
      <rect id="Rectangle_662" data-name="Rectangle 662" width="31.107" height="31.107" fill="none"/>
    </clipPath>
  </defs>
  <g id="Group_2178" data-name="Group 2178" transform="translate(0 0)">
    <g id="Group_2177" data-name="Group 2177" transform="translate(0 0)" clip-path="url(#clip-path)">
      <path id="Path_8704" data-name="Path 8704" d="M27.627,22.993l-2.434-2.434a1.723,1.723,0,0,0-2.434,0l-1.106,1.106a1.305,1.305,0,0,1-1.844,0l-4.8-4.8a1.3,1.3,0,0,1,0-1.844l1.106-1.107a1.719,1.719,0,0,0,0-2.434L13.687,9.056a1.723,1.723,0,0,0-2.432,0l-.887.879a6.214,6.214,0,0,0,0,8.777l7.6,7.6a6.2,6.2,0,0,0,8.777,0l.885-.885a1.722,1.722,0,0,0,0-2.433M24.382,21.37,26.816,23.8a.574.574,0,0,1,0,.812l-.405.406-3.246-3.246.406-.406a.575.575,0,0,1,.811,0M12.876,9.868l2.433,2.425a.573.573,0,0,1,0,.812l-.405.406L11.66,10.267l.4-.4a.575.575,0,0,1,.812,0m5.9,15.633-7.6-7.6a5.043,5.043,0,0,1-.316-6.807L14.1,14.325a2.449,2.449,0,0,0,.106,3.352l4.8,4.8h0a2.449,2.449,0,0,0,3.352.107l3.233,3.234a5.034,5.034,0,0,1-6.807-.317" transform="translate(-2.788 -2.788)" fill="#fff"/>
    </g>
  </g>
</svg>
