<svg id="Group_2572" data-name="Group 2572" xmlns="http://www.w3.org/2000/svg" xmlns:xlink="http://www.w3.org/1999/xlink" width="22.856" height="22.889" viewBox="0 0 22.856 22.889">
  <defs>
    <clipPath id="clip-path">
      <rect id="Rectangle_882" data-name="Rectangle 882" width="22.856" height="22.889" fill="#fff"/>
    </clipPath>
  </defs>
  <g id="Group_2571" data-name="Group 2571" clip-path="url(#clip-path)">
    <path id="Path_9643" data-name="Path 9643" d="M59.485,11.082c.479,0,.926.014,1.371-.009a.484.484,0,0,0,.357-.2.545.545,0,0,0-.048-.405,2.588,2.588,0,0,0-.3-.418q-1.764-2.4-3.527-4.81c-.108-.147-.237-.279-.423-.216a.726.726,0,0,0-.319.255q-1.58,2.138-3.148,4.284c-.225.306-.453.61-.672.92a.337.337,0,0,0,.076.523.709.709,0,0,0,.319.07c.429.008.858,0,1.312,0v2.491h.7c0-.07.008-.128.008-.186q0-1.274,0-2.548c0-.35-.121-.471-.469-.473-.308,0-.617,0-.972,0l3.231-4.4,3.238,4.418H56.994v.709h1.788v6.419h.7ZM52.329,6.074c.479,0,.926.014,1.371-.009a.6.6,0,0,0,.366-.2c.112-.125.042-.281-.049-.41-.026-.037-.052-.072-.079-.108L50.228.289c-.282-.385-.519-.385-.8,0L46.918,3.71q-.634.865-1.269,1.729a.38.38,0,0,0-.07.434.4.4,0,0,0,.394.2h1.358V7.493h.707c0-.561,0-1.111,0-1.66,0-.351-.12-.472-.468-.474-.309,0-.617,0-.974,0l3.231-4.4,3.23,4.4c-.376,0-.7,0-1.016,0a.372.372,0,0,0-.425.426c0,.477,0,.953,0,1.43v.276h.713ZM44.47,15h.695v-.683H44.47Zm10.7-.682h-.679v.7h.679Zm-14.3,3.938H40.18v.685h.695Zm18.6,0h-.688v.693h.688Z" transform="translate(-38.38 0)" fill="#fff"/>
    <path id="Path_9644" data-name="Path 9644" d="M160.228,205.485c0-1.7.007-3.4-.006-5.1a.83.83,0,0,0-.534-.839c-.58-.233-1.151-.488-1.722-.742a.2.2,0,0,0-.271.05c-.306.316-.625.619-.926.939a.47.47,0,0,0-.114.289c-.01.6-.005,1.191-.005,1.8h-.715c0-.453-.034-.908.009-1.356a1.12,1.12,0,0,0-.452-1.078c-.227-.179-.41-.412-.625-.607a.26.26,0,0,0-.225-.042c-.638.266-1.281.526-1.9.828a.773.773,0,0,0-.377.732c-.008,1.707,0,3.413,0,5.12h-.715c0-1.72,0-3.441,0-5.161a2.341,2.341,0,0,1,.466-1.16c.044-.077.169-.115.263-.157.674-.295,1.346-.6,2.029-.872.217-.087.226-.264.3-.425.1-.2.021-.309-.119-.452a2.755,2.755,0,0,1-.779-1.92c-.028-1.012-.018-2.026,0-3.038a.569.569,0,0,1,.193-.372,3.837,3.837,0,0,1,4.6,0,.6.6,0,0,1,.193.394c.016.961.02,1.922,0,2.882a2.91,2.91,0,0,1-.894,2.168.244.244,0,0,0-.051.187.764.764,0,0,0,.547.667c.634.233,1.25.519,1.863.8a.925.925,0,0,1,.343.322,2.322,2.322,0,0,1,.352,1.4c-.024,1.579-.009,3.158-.009,4.737Zm-2.151-10.766a1.348,1.348,0,0,1-.964-.618.234.234,0,0,0-.173-.062q-.648-.008-1.3,0a.234.234,0,0,0-.173.062,1.346,1.346,0,0,1-.961.618,3.035,3.035,0,0,0,.35,1.758,1.71,1.71,0,0,0,2.673.248,2.728,2.728,0,0,0,.542-2.005m-3.572-.749c.208-.047.332-.129.363-.321a.364.364,0,0,1,.407-.328q1.015,0,2.03,0a.374.374,0,0,1,.418.343c.032.191.162.267.358.3,0-.495,0-.977-.005-1.458a.24.24,0,0,0-.117-.161,3.189,3.189,0,0,0-3.326,0,.261.261,0,0,0-.124.179c-.01.475-.006.951-.006,1.449m1.784,5.289.777-.78c.277-.277.277-.277.076-.662a2.64,2.64,0,0,1-1.733,0c-.01.192-.211.335-.037.514.3.3.6.6.917.931" transform="translate(-144.846 -182.596)" fill="#fff"/>
    <path id="Path_9645" data-name="Path 9645" d="M0,117.356l3.107-4.224c.278-.378.553-.758.833-1.134.225-.3.483-.3.7,0q1.9,2.584,3.793,5.169c.1.141.2.285.106.47s-.267.212-.455.211c-.423,0-.846,0-1.286,0v2.487h-.71c0-.064-.012-.128-.012-.193q0-1.263,0-2.526c0-.365.118-.482.48-.484.3,0,.606,0,.961,0l-3.23-4.4-3.22,4.392h3.2v.719H2.514v6.432H1.8v-6.424H1.03c-.179,0-.358-.007-.536,0A.469.469,0,0,1,0,117.58v-.224" transform="translate(0 -106.764)" fill="#fff"/>
    <rect id="Rectangle_876" data-name="Rectangle 876" width="0.715" height="2.132" transform="translate(8.585 20.757)" fill="#fff"/>
    <rect id="Rectangle_877" data-name="Rectangle 877" width="0.715" height="2.132" transform="translate(13.593 20.757)" fill="#fff"/>
    <path id="Path_9646" data-name="Path 9646" d="M326.211,117.887v6.425h-.7v-6.419H323.72v-.709h3.225l-3.238-4.418-3.231,4.4c.356,0,.664,0,.973,0,.348,0,.468.123.469.473q0,1.274,0,2.548c0,.058,0,.116-.008.186h-.7v-2.491c-.454,0-.883,0-1.312,0a.709.709,0,0,1-.319-.07.337.337,0,0,1-.076-.523c.219-.31.447-.614.672-.92q1.572-2.144,3.148-4.284a.726.726,0,0,1,.319-.255c.186-.063.315.069.423.216q1.762,2.406,3.527,4.81a2.592,2.592,0,0,1,.3.418.545.545,0,0,1,.048.405.484.484,0,0,1-.357.2c-.445.024-.892.009-1.371.009" transform="translate(-305.106 -106.805)" fill="#fff"/>
    <path id="Path_9647" data-name="Path 9647" d="M166.552,6.073V7.492h-.713V7.215c0-.477,0-.953,0-1.43a.372.372,0,0,1,.425-.426c.32,0,.64,0,1.016,0l-3.23-4.4-3.231,4.4c.357,0,.665,0,.974,0,.347,0,.467.122.468.474,0,.549,0,1.1,0,1.66h-.707V6.073H160.2a.4.4,0,0,1-.394-.2.38.38,0,0,1,.07-.434q.636-.863,1.268-1.729L163.65.287c.281-.384.518-.383.8,0l3.711,5.062c.026.036.053.072.079.108.091.129.161.284.049.41a.6.6,0,0,1-.366.2c-.445.023-.892.009-1.371.009" transform="translate(-152.603 0)" fill="#fff"/>
    <rect id="Rectangle_878" data-name="Rectangle 878" width="0.695" height="0.683" transform="translate(6.09 14.316)" fill="#fff"/>
    <rect id="Rectangle_879" data-name="Rectangle 879" width="0.679" height="0.695" transform="translate(16.114 14.316)" fill="#fff"/>
    <rect id="Rectangle_880" data-name="Rectangle 880" width="0.695" height="0.685" transform="translate(1.8 18.254)" fill="#fff"/>
    <rect id="Rectangle_881" data-name="Rectangle 881" width="0.688" height="0.693" transform="translate(20.406 18.25)" fill="#fff"/>
  </g>
</svg>
