<svg id="Group_1446" data-name="Group 1446" xmlns="http://www.w3.org/2000/svg" xmlns:xlink="http://www.w3.org/1999/xlink" width="22.971" height="23.355" viewBox="0 0 22.971 23.355">
  <defs>
    <clipPath id="clip-path">
      <rect id="Rectangle_307" data-name="Rectangle 307" width="22.971" height="23.355"/>
    </clipPath>
  </defs>
  <g id="Group_1365" data-name="Group 1365" clip-path="url(#clip-path)">
    <path id="Path_8317" data-name="Path 8317" d="M342.184,13.969a1.214,1.214,0,0,1-.865.872,1.454,1.454,0,0,1-.33.035q-2.248,0-4.5,0a1.135,1.135,0,0,1-1.2-1.2q0-1.076,0-2.153c0-.308.133-.472.379-.473s.384.163.384.468c0,.686,0,1.371,0,2.057,0,.4.128.536.523.536q2.165,0,4.33,0c.369,0,.508-.137.508-.5q0-2.177,0-4.354c0-.367-.139-.5-.507-.5q-2.177,0-4.353,0c-.365,0-.5.139-.5.511,0,.207,0,.415,0,.622a.381.381,0,1,1-.761,0c-.005-.247,0-.494,0-.742a1.132,1.132,0,0,1,1.15-1.151q2.272,0,4.545,0a1.129,1.129,0,0,1,1.151.825.6.6,0,0,0,.045.083Z" transform="translate(-319.213 -7.604)"/>
    <path id="Path_8318" data-name="Path 8318" d="M342.209,258.905c-.133.174-.288.3-.524.212a.381.381,0,0,1-.242-.4c0-.709,0-1.419,0-2.128,0-.37-.137-.508-.5-.509q-2.176,0-4.352,0c-.369,0-.506.137-.507.5q0,2.176,0,4.352c0,.368.138.5.506.505q2.176,0,4.352,0c.365,0,.5-.139.5-.508,0-.167.006-.335,0-.5-.009-.212.016-.406.242-.495s.391.038.524.212V261.3a1.214,1.214,0,0,1-.865.872,1.442,1.442,0,0,1-.33.035q-2.248,0-4.5,0a1.135,1.135,0,0,1-1.2-1.2q0-2.248,0-4.5a1.135,1.135,0,0,1,1.2-1.2c1.427,0,2.854.02,4.28-.009a1.284,1.284,0,0,1,1.41.917Z" transform="translate(-319.238 -243.064)"/>
    <path id="Path_8319" data-name="Path 8319" d="M131.721,0c.214.056.432.1.642.17a3.449,3.449,0,1,1-1.636-.125A.824.824,0,0,0,130.859,0Zm-.426.766a2.7,2.7,0,0,0-2.684,2.7,2.68,2.68,0,0,0,5.359-.039,2.7,2.7,0,0,0-2.675-2.66" transform="translate(-121.719)"/>
    <path id="Path_8320" data-name="Path 8320" d="M1.925,248.259v7.647h9.944v-.249q0-1.711,0-3.422c0-.3.172-.478.427-.448.216.025.336.179.336.443q0,1.7,0,3.4v.29c.252,0,.488,0,.724,0a.374.374,0,0,1,.422.428,6.723,6.723,0,0,1-.049,1.119,1.857,1.857,0,0,1-1.837,1.512q-5,0-10,0A1.9,1.9,0,0,1,0,257.09c0-.247,0-.495,0-.742a.377.377,0,0,1,.422-.43c.23,0,.461,0,.726,0v-.288q0-3.8,0-7.609c0-.416.108-.526.519-.526q1.7,0,3.4,0a.374.374,0,0,1,.41.321.357.357,0,0,1-.241.418.694.694,0,0,1-.259.025q-1.388,0-2.776,0Zm.738,9.952c.065-.643.127-.775.395-.757.5.033.356.448.4.747H10.32c.066-.635.127-.764.393-.747.5.032.357.447.4.737,1.6.227,2.022-.619,1.881-1.495H.765c0,.133,0,.251,0,.369a1.15,1.15,0,0,0,1.071,1.142c.268.021.54,0,.825,0" transform="translate(0 -235.625)"/>
    <path id="Path_8321" data-name="Path 8321" d="M64.8,176.552,60,180.5,60.868,182c.04.069.081.137.115.209a.388.388,0,0,1-.133.523.373.373,0,0,1-.536-.145c-.2-.325-.385-.66-.577-.991l-.363-.627a.532.532,0,0,0-.116.033c-.4.23-.8.457-1.2.7a.745.745,0,0,0-.281,1.054q.354.636.73,1.261a.726.726,0,0,0,1.068.281,26.149,26.149,0,0,1,5.087-2.206c.836-.328,1.681-.635,2.522-.951.065-.024.128-.052.207-.084l-1.572-2.719c-.04-.069-.082-.137-.115-.209a.383.383,0,0,1,.65-.4,1.318,1.318,0,0,1,.1.162q.877,1.521,1.753,3.043c.227.4.16.584-.267.745l-5.291,1.988c-.1.036-.19.074-.3.115.233.408.463.8.681,1.2a1.15,1.15,0,1,1-2,1.138c-.251-.425-.493-.854-.751-1.3a1.617,1.617,0,0,1-2.173-.045c-.139.077-.275.158-.417.229a1.153,1.153,0,0,1-1.547-.467,1.12,1.12,0,0,1,.427-1.534.539.539,0,0,0,.349-.609,1.4,1.4,0,0,1,.7-1.328.338.338,0,0,1,.041-.025,19.807,19.807,0,0,0,3.886-2.8q1.52-1.258,3.044-2.51a.4.4,0,0,1,.691.114c.115.191.229.383.333.58a.388.388,0,0,1-.131.542.383.383,0,0,1-.535-.154c-.048-.072-.092-.146-.155-.249m-3.841,7.878c.263.457.505.886.757,1.309a.38.38,0,0,0,.516.149.35.35,0,0,0,.158-.471c-.245-.452-.509-.893-.778-1.361l-.652.374m-3.3-.332c-.063-.112-.118-.216-.177-.317s-.129-.211-.193-.315c-.488.249-.614.446-.462.7s.394.23.832-.067" transform="translate(-53.317 -167.153)"/>
    <path id="Path_8322" data-name="Path 8322" d="M.024,83.279q0-1.472,0-2.943c0-.364.121-.484.488-.485H4.891c.367,0,.491.121.491.482q0,2.967,0,5.934c0,.346-.128.473-.476.473H.5c-.351,0-.478-.125-.478-.47q0-1.5,0-2.991M.8,85.958H4.6V80.626H.8Z" transform="translate(-0.022 -76.022)"/>
    <path id="Path_8323" data-name="Path 8323" d="M376.243,42.193c-.318-.041-.76.1-.754-.4.006-.487.436-.343.754-.385,0-.138,0-.27,0-.4a1.135,1.135,0,0,1,1.111-1.116c.263,0,.526-.005.789,0a.381.381,0,1,1-.008.761c-.2,0-.4,0-.6,0-.4,0-.53.132-.53.528,0,.07,0,.14,0,.222.312.055.746-.1.761.423.008.262-.133.324-.761.372,0,.344,0,.691,0,1.038,0,.31-.13.474-.375.478s-.388-.163-.389-.487c0-.34,0-.681,0-1.033" transform="translate(-357.482 -37.972)"/>
    <path id="Path_8324" data-name="Path 8324" d="M318.888,216.63c-.283,0-.447-.139-.464-.355a.386.386,0,0,1,.349-.409q.908-.188,1.818-.371c.3-.059.5.047.552.272.059.26-.076.438-.4.506-.574.12-1.15.233-1.726.347a.849.849,0,0,1-.13.011" transform="translate(-303.154 -205.145)"/>
    <path id="Path_8325" data-name="Path 8325" d="M296.323,169.351c-.109-.094-.262-.164-.3-.273a.462.462,0,0,1,.058-.406c.53-.43,1.078-.838,1.634-1.234a.339.339,0,0,1,.483.112.368.368,0,0,1-.064.514c-.207.173-.428.329-.644.491-.279.21-.557.423-.841.626a2.687,2.687,0,0,1-.329.169" transform="translate(-281.809 -159.35)"/>
    <path id="Path_8326" data-name="Path 8326" d="M271.759,129.922c-.364.008-.575-.319-.4-.566.383-.546.788-1.077,1.2-1.6a.381.381,0,0,1,.6.467q-.574.79-1.173,1.563a.655.655,0,0,1-.221.141" transform="translate(-258.285 -121.502)"/>
    <path id="Path_8327" data-name="Path 8327" d="M378.31,296.945a1.53,1.53,0,1,1-1.531-1.53,1.52,1.52,0,0,1,1.531,1.53m-1.526-.764a.764.764,0,1,0,.76.769.783.783,0,0,0-.76-.769" transform="translate(-357.254 -281.249)"/>
    <path id="Path_8328" data-name="Path 8328" d="M175.633,41.439c0-.367,0-.734,0-1.1a.38.38,0,0,1,.588-.366c.743.363,1.486.729,2.217,1.116a.511.511,0,0,1,.235.367.472.472,0,0,1-.229.346c-.739.389-1.488.76-2.239,1.125a.374.374,0,0,1-.572-.364c-.006-.375,0-.749,0-1.124m.77.529,1.039-.521-1.039-.52Z" transform="translate(-167.208 -38.001)"/>
    <path id="Path_8329" data-name="Path 8329" d="M33.108,144.453c-.239,0-.479,0-.718,0a.382.382,0,1,1-.011-.762q.742-.006,1.483,0a.371.371,0,0,1,.4.375.375.375,0,0,1-.418.387c-.247,0-.494,0-.742,0" transform="translate(-30.44 -136.797)"/>
    <path id="Path_8330" data-name="Path 8330" d="M33.1,176.387c-.239,0-.479,0-.718,0a.382.382,0,1,1,0-.762q.742-.006,1.483,0a.381.381,0,1,1,0,.761c-.255.005-.51,0-.766,0" transform="translate(-30.439 -167.199)"/>
    <path id="Path_8331" data-name="Path 8331" d="M48.7,112.478c-.128,0-.255.005-.383,0a.37.37,0,0,1-.379-.377.366.366,0,0,1,.371-.383c.263-.008.527-.009.789,0a.38.38,0,0,1,.008.759c-.135.008-.271,0-.407,0" transform="translate(-45.642 -106.354)"/>
  </g>
</svg>
