<svg id="Group_20323" data-name="Group 20323" xmlns="http://www.w3.org/2000/svg" width="13.206" height="12.445" viewBox="0 0 13.206 12.445">
  <g id="Group_20322" data-name="Group 20322" transform="translate(0 0)">
    <path id="Path_101771" data-name="Path 101771" d="M12.932,24.282,8.267,15.706a1.935,1.935,0,0,0-3.327,0L.275,24.282A1.934,1.934,0,0,0,1.938,27.2h9.33A1.934,1.934,0,0,0,12.932,24.282ZM6.6,25.656a.774.774,0,1,1,.774-.774A.775.775,0,0,1,6.6,25.656Zm.774-3.1a.774.774,0,1,1-1.548,0V18.692a.774.774,0,0,1,1.548,0Z" transform="translate(0 -14.759)" fill="#e1003e"/>
  </g>
</svg>
