<svg id="Group_1419" data-name="Group 1419" xmlns="http://www.w3.org/2000/svg" xmlns:xlink="http://www.w3.org/1999/xlink" width="20.208" height="20.22" viewBox="0 0 20.208 20.22">
  <defs>
    <clipPath id="clip-path">
      <rect id="Rectangle_325" data-name="Rectangle 325" width="20.208" height="20.22" fill="#fff"/>
    </clipPath>
  </defs>
  <g id="Group_1418" data-name="Group 1418" clip-path="url(#clip-path)">
    <path id="Path_8364" data-name="Path 8364" d="M10.651,20.22H9.506l-.428-.049A9.757,9.757,0,0,1,3.46,17.714,9.849,9.849,0,0,1,.2,8.133,9.655,9.655,0,0,1,3.324,2.62,9.844,9.844,0,0,1,9.391.028,9.88,9.88,0,0,1,14.8,1.163a10.051,10.051,0,0,1,4.226,4.216,9.485,9.485,0,0,1,1.071,3.3c.043.331.075.663.111.994V10.7a.861.861,0,0,0-.032.132,10.085,10.085,0,0,1-4.2,7.489,9.708,9.708,0,0,1-4.022,1.719c-.432.078-.87.121-1.305.18m5.29-15.941c-.1-.126-.164-.264-.269-.319-.157-.082-.223-.21-.087-.332a2.9,2.9,0,0,1,.362-.221c.1-.067.194-.145.3-.225A9.2,9.2,0,0,0,4.7,2.6a1.739,1.739,0,0,1,1.146.362h.491c.005-.159-.082-.2-.213-.192-.115,0-.229,0-.321,0,.012-.1.043-.175.019-.224s-.108-.048-.167-.053c-.088-.008-.178,0-.319,0,.081-.066.118-.1.158-.129a3.694,3.694,0,0,1,.334-.245.643.643,0,0,1,.683.14.415.415,0,0,0,.663.059c.1-.1.18-.113.271-.012a.672.672,0,0,1-.756.335l.05.317c.132,0,.244,0,.355,0,.069,0,.185,0,.2-.037.055-.145.171-.131.277-.131.171,0,.236-.074.2-.242l-.256-.07c.116-.1.185-.2.268-.214A4.757,4.757,0,0,1,8.4,2.253c-.09.2-.4.254-.259.494.048.083.213.1.359.158a3.447,3.447,0,0,1-.015-.347c0-.051.026-.127.062-.144a3.962,3.962,0,0,1,.436-.165,1.3,1.3,0,0,1,.977.183c.212.095.427.164.321.472l.262.08c-.034.183-.114.294-.316.258a.193.193,0,0,0-.256.168.648.648,0,0,1-.061.132l-.883-.211.36-.193.354-.193c-.132-.086-.228-.2-.325-.2a1.664,1.664,0,0,0-.593.1,2.749,2.749,0,0,0-.485.313l.079.127-.43.238L7.91,3.236a3.77,3.77,0,0,0-1.155.56c-.023.013-.053.06-.046.075.057.126.092.3.192.359a2.639,2.639,0,0,0,.589.192v.47l.062.04a2.65,2.65,0,0,0,.209-.2c.077-.091.131-.267.213-.278.394-.053.461-.288.411-.618a.294.294,0,0,1,0-.079.387.387,0,0,1,.34-.264c.192.04.382.091.585.14l-.037.459.657-.262a1.6,1.6,0,0,1,.01.241.349.349,0,0,0,.236.418c.154.054.118.177.125.293.008.134-.091.136-.173.171a1.078,1.078,0,0,0-.154.1c.05.044.1.09.152.13a.284.284,0,0,0,.089.041c.155.047.209.141.131.323-.141-.04-.284-.079-.426-.122-.229-.07-.234-.1-.093-.3.029-.041.011-.116.014-.175-.052.015-.118.015-.153.048a.422.422,0,0,1-.5,0,.59.59,0,0,0-.317-.068c-.025,0-.077.089-.075.135s.055.09.1.114a.935.935,0,0,0,.192.058,1.042,1.042,0,0,1-.064.088c-.026.028-.055.053-.081.077-.191-.134-.186-.125-.355.013-.193.157-.3.4-.556.5a2.564,2.564,0,0,0-.809.708.155.155,0,0,0-.045.1c.009.165-.092.247-.218.319-.108.062-.21.135-.313.206a.6.6,0,0,0-.341.662.985.985,0,0,1,0,.208c-.278-.055-.451-.177-.377-.488-.335,0-.637,0-.939,0a.651.651,0,0,0-.194.025,1.154,1.154,0,0,0-.826.91c-.033.156.026.47.131.5a.6.6,0,0,0,.565-.017c.178-.132.368-.246.555-.369.183.255-.082.417-.11.627l.514.1c.016.226.039.442.043.658,0,.127.035.2.174.2a.265.265,0,0,1,.1.014.591.591,0,0,0,.806-.285.376.376,0,0,1,.167-.157.946.946,0,0,1,.651.237.483.483,0,0,0,.7-.024.622.622,0,0,1,.449.405.4.4,0,0,0,.431.251c.322-.02.409.051.509.354a1.06,1.06,0,0,1,.04.332c0,.117.049.166.153.214a2.394,2.394,0,0,0,1.152.2c.069,0,.179.02.2.066a.7.7,0,0,0,.608.433,1.869,1.869,0,0,1-.227.465,1.21,1.21,0,0,0-.335.854c0,.111-.039.224-.03.333a.465.465,0,0,1-.3.5,1.285,1.285,0,0,1-.47.067.266.266,0,0,0-.235.131c-.137.181-.057.354-.01.526a.4.4,0,0,1-.089.41,2.923,2.923,0,0,0-.462.613,1.216,1.216,0,0,1-.864.575,1.7,1.7,0,0,0-.224.107l.2.138c.01.007.019.017.062.059l-.285.4.413.167c0,.009,0,.034,0,.06A.862.862,0,0,0,9.2,18.5c.03.04-.023.2-.031.2-.209-.013-.427.073-.624-.085a2.781,2.781,0,0,1-.734-.888.8.8,0,0,1-.111-.58.734.734,0,0,0-.2-.72.38.38,0,0,1-.062-.263c.017-.194.059-.385.093-.594-.189,0-.195-.113-.192-.242.005-.283,0-.566,0-.849,0-.587.01-.6-.5-.892-.205-.116-.386-.183-.448-.456-.038-.168-.213-.311-.344-.449a.708.708,0,0,1-.245-.8.2.2,0,0,0,.007-.1.472.472,0,0,1,.309-.544.288.288,0,0,0,.165-.367c-.064-.351-.056-.352-.431-.372-.168-.009-.34,0-.455-.171a1.273,1.273,0,0,0-1.025-.636c-.01,0-.02-.016-.035-.028v-.2a.242.242,0,0,0-.085-.018c-.1.022-.211.089-.3.069-.381-.081-.816-.089-.976-.556a.311.311,0,0,1-.009-.222.211.211,0,0,0-.025-.265,1.979,1.979,0,0,1-.513-1.124c0-.01-.014-.019-.03-.039l-.156.011a1.361,1.361,0,0,0,.3.925,1.124,1.124,0,0,1,.1.325l-.066.05c-.1-.04-.253-.049-.3-.124a1.276,1.276,0,0,1-.341-.974c.011-.057,0-.119,0-.177a.166.166,0,0,0-.13-.209.323.323,0,0,1-.259-.423.8.8,0,0,0,0-.13l-.058,0a8.99,8.99,0,0,0,.607,8.2,9.009,9.009,0,0,0,8.865,4.552,8.522,8.522,0,0,0,3.487-1.05,9.232,9.232,0,0,0,2.816-2.325l-.3-.018c0-.164.007-.321,0-.477a.357.357,0,0,0-.066-.216,1.029,1.029,0,0,1-.284-.92.389.389,0,0,0-.146-.363.421.421,0,0,1-.089-.533,4.652,4.652,0,0,0,.214-.422.336.336,0,0,0,0-.246c-.154-.3-.333-.582-.487-.88a.679.679,0,0,1-.066-.313c0-.2.031-.4.049-.61-.072-.011-.123-.022-.174-.026a.719.719,0,0,1-.586-.212c-.077-.1-.4-.046-.516.029a.74.74,0,0,1-.279.1c-.2.033-.407.051-.612.068a.459.459,0,0,1-.472-.157c-.189-.252-.412-.478-.621-.716a1.692,1.692,0,0,1-.1-.908.06.06,0,0,1,.027-.026c.167-.061.124-.2.142-.332l-.178-.034c-.14-.218-.065-.347.124-.461s.345-.266.532-.374a.467.467,0,0,0,.271-.527c-.011-.066,0-.18.032-.2.2-.109.367-.3.637-.262a.892.892,0,0,0,.7-.127.255.255,0,0,1,.128-.046c.32-.026.64-.048.981-.072V7.2l1.133.34.017-.277a.69.69,0,0,1,.721.129c.287.279.637.1,1,.152a5.319,5.319,0,0,1-.179-.534.277.277,0,0,0-.351-.256A.419.419,0,0,1,18,6.322c-.007-.075-.019-.15-.028-.222-.366.061-.26.405-.391.6a.772.772,0,0,1-.361-.645c0-.026,0-.06-.019-.075a2.753,2.753,0,0,0-.443-.389c-.1-.059-.253-.025-.377-.033-.032.465.428.467.611.674a.7.7,0,0,0-.053.226c.031.182-.1.219-.217.239a.23.23,0,0,1-.3-.179c.287-.032.287-.032.339-.132-.236-.244-.618-.315-.776-.673-.142.158-.29.293-.524.2-.024-.009-.081.035-.107.067a1.861,1.861,0,0,0-.362.489c-.1.282-.293.273-.51.275-.079,0-.158,0-.237,0a.334.334,0,0,1-.378-.326,1.182,1.182,0,0,1-.033-.254c.009-.161.035-.326.251-.33.244,0,.489,0,.748,0l.051-.215-.194-.074a1.039,1.039,0,0,0,.023-.144c0-.181.059-.306.273-.289a.44.44,0,0,0,.433-.308.507.507,0,0,1,.509-.26,3.244,3.244,0,0,1,.417.042l-.067-.438-.337.125m.913-.518a1.122,1.122,0,0,0-.007.188.287.287,0,0,1-.232.364.08.08,0,0,0-.034.019c-.041.042-.08.085-.119.128a.839.839,0,0,0,.178.073c.076.013.159-.008.235.007.239.047.343-.088.414-.287l-.434-.492M6.038,5.45l.728.037c.049-.177-.023-.28-.145-.308a.477.477,0,0,0-.583.271m.483.132a.381.381,0,0,0-.5.28c-.036.14,0,.209.156.216l.347-.5M5.191,2.968l-.547.108.02.175c.419.031.529.043.527-.283m.295,1.587.162.328c.251-.007.3-.156.3-.394l-.46.066M6.96,5.928c-.29.033-.378.1-.377.3.327.027.4-.031.377-.3M4.675,3.6a.458.458,0,0,0,.459.09c.041-.025.05-.1.1-.213L4.675,3.6M7.147,5.737c-.028.295.012.324.34.284.04-.282-.219-.175-.34-.284m-.4.1c.273-.029.317-.077.273-.274H6.746Zm11.578.523.249-.026-.2-.414-.047.014Z" transform="translate(0 0)" fill="#fff"/>
  </g>
</svg>
