<svg id="Group_2574" data-name="Group 2574" xmlns="http://www.w3.org/2000/svg" xmlns:xlink="http://www.w3.org/1999/xlink" width="37.69" height="29.032" viewBox="0 0 37.69 29.032">
  <defs>
    <clipPath id="clip-path">
      <rect id="Rectangle_884" data-name="Rectangle 884" width="37.69" height="29.032" fill="none"/>
    </clipPath>
  </defs>
  <g id="Group_2573" data-name="Group 2573" clip-path="url(#clip-path)">
    <path id="Path_9648" data-name="Path 9648" d="M5.969,0A14.686,14.686,0,0,1,7.583.426a5.533,5.533,0,0,1,3.463,5.1c.007,2.12-.047,4.241.017,6.359a3.407,3.407,0,0,1-3.543,3.606c-.932,0-1.864-.008-2.8,0-.246,0-.313-.078-.306-.316.016-.539.019-1.079,0-1.617-.009-.252.083-.309.315-.307.944.01,1.888.007,2.833,0a1.124,1.124,0,0,0,1.274-1.292c0-.89,0-.89-.9-.89-.343,0-.687-.008-1.03,0-.2.006-.288-.04-.283-.263.014-.576.012-1.152,0-1.728,0-.2.079-.249.262-.246.539.008,1.079-.008,1.618.008.248.007.342-.055.338-.322C8.83,7.514,8.851,6.5,8.835,5.48a3.309,3.309,0,0,0-6.616,0C2.2,6.494,2.224,7.512,2.21,8.529c0,.263.083.333.335.325.527-.017,1.055,0,1.582-.009.211,0,.31.041.3.281-.016.563-.014,1.127,0,1.691.005.219-.082.266-.28.266-1.288-.006-2.575-.009-3.863,0C.049,11.085,0,11,0,10.782.011,8.956-.016,7.13.016,5.3A5.517,5.517,0,0,1,4.783.078C4.863.066,4.959.1,5.012,0Z" transform="translate(0)" fill="#fff"/>
    <path id="Path_9649" data-name="Path 9649" d="M441.556,63.967c-.111.065-.1.19-.134.289a3.253,3.253,0,0,1-2.92,2.36c-.254.021-.26.14-.26.33,0,1.249,0,2.5.008,3.748,0,.265-.057.37-.344.357-.526-.023-1.054-.016-1.581,0-.225.006-.293-.07-.293-.294q.009-5.236,0-10.473c0-.21.069-.278.275-.273.808.02,1.616-.026,2.424.057a3.342,3.342,0,0,1,2.674,2.286c.047.147.034.315.151.438Zm-3.312-.626c0,.269.012.538,0,.806-.014.239.078.306.3.25a1.1,1.1,0,0,0-.039-2.13c-.185-.042-.272-.024-.262.194.014.293,0,.586,0,.879" transform="translate(-403.866 -55.582)" fill="#fff"/>
    <path id="Path_9650" data-name="Path 9650" d="M187.188,65.52c0,1.715-.006,3.431.006,5.146,0,.275-.073.362-.35.35-.5-.022-1.006-.021-1.508,0-.27.011-.359-.063-.355-.345.015-1.237,0-2.475.013-3.712,0-.3-.086-.373-.373-.368-.745.013-.745,0-.745.761,0,1.115-.006,2.23,0,3.345,0,.232-.054.327-.305.319-.539-.017-1.079-.015-1.618,0-.235.006-.286-.085-.286-.3q.008-5.219,0-10.439c0-.226.069-.3.293-.293.515.014,1.03.019,1.544,0,.283-.012.378.064.374.364-.017,1.225,0,2.45-.014,3.675,0,.31.088.394.392.387.726-.017.727,0,.727-.743,0-1.115.006-2.23-.005-3.345,0-.248.057-.348.324-.338.514.019,1.03.022,1.544,0,.286-.013.345.09.343.357-.011,1.727-.006,3.455-.006,5.182" transform="translate(-168.269 -55.555)" fill="#fff"/>
    <path id="Path_9651" data-name="Path 9651" d="M91.8,244.983c0-1.715.006-3.43-.007-5.146,0-.277.074-.36.349-.348.722.032,1.445-.021,2.168.039a3.271,3.271,0,0,1,3,3.13q.045,2.37,0,4.741a3.262,3.262,0,0,1-3.09,3.114c-.7.026-1.4,0-2.1.019-.26.007-.33-.076-.328-.331.01-1.74.005-3.479.005-5.219m2.208.005c0,1.017.008,2.034-.005,3.051,0,.285.115.3.333.238a1.1,1.1,0,0,0,.773-1.053q.011-2.206,0-4.412a1.051,1.051,0,0,0-.708-1.021c-.318-.13-.39-.081-.39.254q0,1.471,0,2.941" transform="translate(-85.024 -221.821)" fill="#fff"/>
    <path id="Path_9652" data-name="Path 9652" d="M363.372,238.733c.492-.984.994-1.963,1.471-2.954.131-.273.248-.33.52-.176.447.253.91.479,1.377.692.219.1.247.191.137.407-.727,1.428-1.433,2.868-2.164,4.294a.691.691,0,0,0,.008.708c.717,1.406,1.412,2.823,2.131,4.228.133.261.087.377-.171.494q-.686.309-1.345.673c-.236.13-.35.1-.472-.15-.484-1-.989-1.994-1.55-2.987v1.21c0,.465-.01.931,0,1.4.007.22-.058.3-.288.3-.527-.015-1.055-.023-1.581,0-.3.015-.361-.1-.36-.375.01-2.315.006-4.63.006-6.945,0-1.127.012-2.254-.008-3.38-.005-.3.1-.372.375-.361.514.02,1.03.016,1.544,0,.237-.007.317.063.312.31-.015.868-.006,1.736-.006,2.6l.06.011" transform="translate(-334.448 -218.145)" fill="#fff"/>
    <path id="Path_9653" data-name="Path 9653" d="M259.615,250.707a3.292,3.292,0,0,1-2.511-1.11c-.2-.21-.571-.384-.551-.642.017-.217.349-.412.546-.613.24-.245.494-.478.725-.731.154-.169.269-.212.434-.011a6.556,6.556,0,0,0,.517.523,1.1,1.1,0,0,0,1.913-.9,1.058,1.058,0,0,0-1.02-.9,3.5,3.5,0,0,1-2.308-.9,3.306,3.306,0,0,1,1.832-5.708,3.23,3.23,0,0,1,2.883,1.059c.21.218.595.4.576.668-.016.225-.364.429-.569.639-.223.228-.468.436-.671.681s-.333.194-.512-.013a5.814,5.814,0,0,0-.574-.569,1.1,1.1,0,0,0-1.8,1.028,1.086,1.086,0,0,0,1.008.869,3.368,3.368,0,0,1,3.24,2.368,3.3,3.3,0,0,1-3.159,4.267" transform="translate(-237.369 -221.998)" fill="#fff"/>
    <path id="Path_9654" data-name="Path 9654" d="M271.383,65.444c0-1.715.007-3.43-.007-5.145,0-.294.083-.371.371-.367,1.226.015,2.452.018,3.678,0,.318,0,.394.1.38.4-.023.5-.016,1,0,1.506.007.234-.059.325-.307.317-.539-.017-1.079,0-1.618-.009-.228-.006-.3.073-.291.3.013.539.016,1.078,0,1.617-.008.253.092.308.322.3.539-.013,1.079,0,1.618-.008.2,0,.282.059.277.271-.012.563-.01,1.127,0,1.69,0,.2-.074.253-.259.251-.539-.008-1.079.008-1.618-.007-.248-.007-.349.054-.339.323.02.538.013,1.078,0,1.617,0,.207.065.279.274.275.539-.011,1.079,0,1.618-.007.223,0,.335.038.325.3-.019.538-.018,1.078,0,1.617.009.259-.1.3-.326.3-1.25-.008-2.5-.012-3.751,0-.276,0-.352-.076-.35-.35.012-1.727.006-3.455.006-5.182" transform="translate(-251.357 -55.509)" fill="#fff"/>
    <path id="Path_9655" data-name="Path 9655" d="M181.593,244.957c0-1.716.007-3.431-.007-5.147,0-.278.075-.351.35-.348q1.876.021,3.752,0c.261,0,.335.079.326.333q-.027.79,0,1.58c.008.25-.084.311-.317.3-.527-.015-1.055,0-1.582-.009-.227-.005-.33.043-.32.3.02.526.018,1.054,0,1.58-.008.252.061.344.325.334.539-.019,1.079,0,1.618-.009.206,0,.279.06.274.272-.012.563-.011,1.127,0,1.691,0,.194-.068.254-.256.251-.539-.009-1.08.013-1.618-.01-.285-.012-.354.085-.343.355.021.5.026,1.006,0,1.507-.017.308.1.366.378.356.527-.018,1.054,0,1.582-.008.185,0,.263.05.259.248-.01.576-.008,1.152,0,1.728,0,.172-.056.237-.232.236-1.312,0-2.624-.009-3.936,0-.271,0-.251-.15-.251-.329q0-1.985,0-3.97v-1.25" transform="translate(-168.191 -221.797)" fill="#fff"/>
    <path id="Path_9656" data-name="Path 9656" d="M346.209,65.431c0-1.715.007-3.431-.007-5.146,0-.294.082-.38.371-.367a14.384,14.384,0,0,0,1.471,0c.321-.018.38.1.379.4-.011,2.659,0,5.318-.015,7.977,0,.363.074.5.459.468.488-.037.981,0,1.471-.013.228-.007.3.073.291.3-.013.539-.016,1.079,0,1.617.008.254-.094.3-.322.3-1.251-.009-2.5-.012-3.752,0-.273,0-.355-.069-.353-.348.012-1.728.006-3.455.006-5.183" transform="translate(-320.663 -55.495)" fill="#fff"/>
  </g>
</svg>
