<svg xmlns="http://www.w3.org/2000/svg" xmlns:xlink="http://www.w3.org/1999/xlink" width="19.869" height="19.869" viewBox="0 0 19.869 19.869">
  <defs>
    <clipPath id="clip-path">
      <rect id="Rectangle_327" data-name="Rectangle 327" width="19.869" height="19.869" fill="#fff"/>
    </clipPath>
  </defs>
  <g id="Group_1421" data-name="Group 1421" transform="translate(0 0)">
    <g id="Group_1421-2" data-name="Group 1421" transform="translate(0 0)" clip-path="url(#clip-path)">
      <path id="Path_8366" data-name="Path 8366" d="M9.934,1.79c2.653,0,2.967.01,4.014.058a5.483,5.483,0,0,1,1.844.342,3.072,3.072,0,0,1,1.143.743,3.08,3.08,0,0,1,.743,1.142,5.53,5.53,0,0,1,.342,1.845c.047,1.047.057,1.362.057,4.014s-.01,2.967-.057,4.014a5.518,5.518,0,0,1-.342,1.844,3.29,3.29,0,0,1-1.886,1.886,5.483,5.483,0,0,1-1.844.342c-1.048.047-1.362.058-4.014.058s-2.967-.011-4.014-.058a5.483,5.483,0,0,1-1.844-.342,3.083,3.083,0,0,1-1.143-.743,3.076,3.076,0,0,1-.743-1.143,5.518,5.518,0,0,1-.342-1.844C1.8,12.9,1.79,12.587,1.79,9.934s.01-2.967.057-4.014a5.53,5.53,0,0,1,.342-1.845,3.08,3.08,0,0,1,.743-1.142A3.072,3.072,0,0,1,4.075,2.19,5.483,5.483,0,0,1,5.92,1.848C6.967,1.8,7.281,1.79,9.934,1.79m0-1.79c-2.7,0-3.036.011-4.1.06A7.3,7.3,0,0,0,3.427.522a4.874,4.874,0,0,0-1.76,1.146A4.864,4.864,0,0,0,.522,3.427,7.26,7.26,0,0,0,.06,5.839C.011,6.9,0,7.236,0,9.934s.011,3.036.06,4.1a7.26,7.26,0,0,0,.462,2.412A4.864,4.864,0,0,0,1.667,18.2a4.874,4.874,0,0,0,1.76,1.146,7.3,7.3,0,0,0,2.411.462c1.06.048,1.4.06,4.1.06s3.036-.011,4.1-.06a7.3,7.3,0,0,0,2.411-.462,5.078,5.078,0,0,0,2.905-2.905,7.26,7.26,0,0,0,.462-2.412c.048-1.06.06-1.4.06-4.1s-.011-3.035-.06-4.1a7.26,7.26,0,0,0-.462-2.412A4.864,4.864,0,0,0,18.2,1.668,4.874,4.874,0,0,0,16.441.522,7.3,7.3,0,0,0,14.03.06C12.97.011,12.632,0,9.934,0" transform="translate(0 0)" fill="#fff"/>
      <path id="Path_8367" data-name="Path 8367" d="M10.6,5.494a5.1,5.1,0,1,0,5.1,5.1,5.1,5.1,0,0,0-5.1-5.1m0,8.413A3.312,3.312,0,1,1,13.907,10.6,3.312,3.312,0,0,1,10.6,13.907" transform="translate(-0.662 -0.661)" fill="#fff"/>
      <path id="Path_8368" data-name="Path 8368" d="M18.353,5.1A1.192,1.192,0,1,1,17.161,3.91,1.192,1.192,0,0,1,18.353,5.1" transform="translate(-1.923 -0.471)" fill="#fff"/>
    </g>
  </g>
</svg>
