<svg xmlns="http://www.w3.org/2000/svg" xmlns:xlink="http://www.w3.org/1999/xlink" width="18.44" height="18.44" viewBox="0 0 18.44 18.44">
  <defs>
    <clipPath id="clip-path">
      <rect id="Rectangle_327" data-name="Rectangle 327" width="18.44" height="18.44" fill="#e60c35"/>
    </clipPath>
  </defs>
  <g id="Group_1421" data-name="Group 1421" transform="translate(0 0)">
    <g id="Group_1421-2" data-name="Group 1421" transform="translate(0 0)" clip-path="url(#clip-path)">
      <path id="Path_8366" data-name="Path 8366" d="M9.22,1.661c2.462,0,2.753.009,3.726.054a5.089,5.089,0,0,1,1.712.318,2.851,2.851,0,0,1,1.06.69,2.858,2.858,0,0,1,.69,1.06,5.132,5.132,0,0,1,.318,1.713c.044.971.053,1.264.053,3.725s-.009,2.753-.053,3.726a5.121,5.121,0,0,1-.318,1.712,3.053,3.053,0,0,1-1.75,1.75,5.088,5.088,0,0,1-1.712.318c-.972.044-1.264.054-3.726.054s-2.753-.01-3.726-.054a5.088,5.088,0,0,1-1.712-.318,2.861,2.861,0,0,1-1.06-.69,2.855,2.855,0,0,1-.69-1.06,5.121,5.121,0,0,1-.318-1.712c-.044-.972-.053-1.264-.053-3.726s.009-2.753.053-3.725a5.132,5.132,0,0,1,.318-1.713,2.858,2.858,0,0,1,.69-1.06,2.851,2.851,0,0,1,1.06-.69,5.089,5.089,0,0,1,1.712-.318c.972-.045,1.264-.054,3.726-.054M9.22,0c-2.5,0-2.818.011-3.8.056A6.77,6.77,0,0,0,3.18.484,4.523,4.523,0,0,0,1.547,1.548,4.514,4.514,0,0,0,.484,3.18,6.738,6.738,0,0,0,.056,5.419C.011,6.4,0,6.716,0,9.22s.011,2.818.056,3.8A6.738,6.738,0,0,0,.484,15.26a4.514,4.514,0,0,0,1.063,1.633A4.523,4.523,0,0,0,3.18,17.956a6.77,6.77,0,0,0,2.238.429c.984.045,1.3.056,3.8.056s2.818-.011,3.8-.056a6.77,6.77,0,0,0,2.238-.429,4.713,4.713,0,0,0,2.7-2.7,6.738,6.738,0,0,0,.429-2.238c.045-.984.056-1.3.056-3.8s-.011-2.817-.056-3.8a6.738,6.738,0,0,0-.429-2.238,4.514,4.514,0,0,0-1.063-1.633A4.523,4.523,0,0,0,15.259.484,6.77,6.77,0,0,0,13.021.056C12.038.011,11.723,0,9.22,0" transform="translate(0 0)" fill="#e60c35"/>
      <path id="Path_8367" data-name="Path 8367" d="M10.229,5.494a4.735,4.735,0,1,0,4.735,4.735,4.735,4.735,0,0,0-4.735-4.735m0,7.808A3.073,3.073,0,1,1,13.3,10.229,3.074,3.074,0,0,1,10.229,13.3" transform="translate(-1.009 -1.009)" fill="#e60c35"/>
      <path id="Path_8368" data-name="Path 8368" d="M18.181,5.016A1.107,1.107,0,1,1,17.075,3.91a1.106,1.106,0,0,1,1.106,1.106" transform="translate(-2.933 -0.718)" fill="#e60c35"/>
    </g>
  </g>
</svg>
