<svg xmlns="http://www.w3.org/2000/svg" width="14.884" height="14.849" viewBox="0 0 14.884 14.849">
  <path id="linkedin" d="M11.119,7.866A1.249,1.249,0,0,0,10.074,7.5a1.492,1.492,0,0,0-1.325.558,2.744,2.744,0,0,0-.384,1.569v5.089a.36.36,0,0,1-.384.384H5.333a.4.4,0,0,1-.261-.1.349.349,0,0,1-.122-.279V5.3a.423.423,0,0,1,.384-.384h2.58a.352.352,0,0,1,.227.07.373.373,0,0,1,.122.209v.174a.6.6,0,0,1,.035.244,3.655,3.655,0,0,1,2.649-.941,4.17,4.17,0,0,1,2.893.941,3.514,3.514,0,0,1,1.046,2.754v6.344a.349.349,0,0,1-.122.279.4.4,0,0,1-.261.1H11.782a.4.4,0,0,1-.261-.1.349.349,0,0,1-.122-.279V9a1.868,1.868,0,0,0-.279-1.133ZM3.067,3.335a1.7,1.7,0,0,1-1.272.54,1.7,1.7,0,0,1-1.272-.54A1.788,1.788,0,0,1,0,2.045,1.735,1.735,0,0,1,.523.773,1.729,1.729,0,0,1,1.8.25,1.732,1.732,0,0,1,3.067.773,1.735,1.735,0,0,1,3.59,2.045,1.784,1.784,0,0,1,3.067,3.335ZM3.52,5.3v9.412a.349.349,0,0,1-.122.279.4.4,0,0,1-.261.1H.488a.377.377,0,0,1-.279-.1.377.377,0,0,1-.1-.279V5.3a.4.4,0,0,1,.1-.261.349.349,0,0,1,.279-.122H3.137a.423.423,0,0,1,.384.384Z" transform="translate(0 -0.25)" fill="#e60c35"/>
</svg>
