<svg xmlns="http://www.w3.org/2000/svg" width="16.037" height="16" viewBox="0 0 16.037 16">
  <path id="linkedin" d="M11.981,8.456a1.346,1.346,0,0,0-1.127-.394,1.608,1.608,0,0,0-1.427.6,2.957,2.957,0,0,0-.413,1.69v5.484a.388.388,0,0,1-.413.413H5.746a.426.426,0,0,1-.282-.113.376.376,0,0,1-.132-.3V5.7a.455.455,0,0,1,.413-.413H8.526a.379.379,0,0,1,.244.075.4.4,0,0,1,.132.225v.188a.647.647,0,0,1,.037.263A3.939,3.939,0,0,1,11.793,5.02a4.493,4.493,0,0,1,3.118,1.014A3.787,3.787,0,0,1,16.037,9v6.836a.376.376,0,0,1-.132.3.426.426,0,0,1-.282.113h-2.93a.426.426,0,0,1-.282-.113.376.376,0,0,1-.132-.3V9.677a2.012,2.012,0,0,0-.3-1.221ZM3.305,3.574a1.835,1.835,0,0,1-1.371.582A1.837,1.837,0,0,1,.563,3.574,1.926,1.926,0,0,1,0,2.184,1.869,1.869,0,0,1,.563.813,1.863,1.863,0,0,1,1.934.25,1.866,1.866,0,0,1,3.305.813a1.87,1.87,0,0,1,.563,1.371A1.922,1.922,0,0,1,3.305,3.574ZM3.793,5.7V15.837a.376.376,0,0,1-.132.3.426.426,0,0,1-.282.113H.526a.406.406,0,0,1-.3-.113.406.406,0,0,1-.113-.3V5.7a.426.426,0,0,1,.113-.282.376.376,0,0,1,.3-.132H3.38a.455.455,0,0,1,.413.413Z" transform="translate(0 -0.25)" fill="#fff"/>
</svg>
