<svg id="Group_2570" data-name="Group 2570" xmlns="http://www.w3.org/2000/svg" xmlns:xlink="http://www.w3.org/1999/xlink" width="19.898" height="19.893" viewBox="0 0 19.898 19.893">
  <defs>
    <clipPath id="clip-path">
      <rect id="Rectangle_874" data-name="Rectangle 874" width="19.898" height="19.893" fill="#fff"/>
    </clipPath>
  </defs>
  <g id="Group_2569" data-name="Group 2569" clip-path="url(#clip-path)">
    <path id="Path_9641" data-name="Path 9641" d="M2.765,19.893a6.731,6.731,0,0,1-1.058-.351,3,3,0,0,1-1.7-2.72c-.021-.647-.006-1.295,0-1.942a.933.933,0,1,1,1.863.009c0,.615,0,1.23,0,1.845a1.241,1.241,0,0,0,1.3,1.294q6.779,0,13.558,0a1.242,1.242,0,0,0,1.3-1.306q0-6.769,0-13.539a1.244,1.244,0,0,0-1.315-1.315H3.178a1.242,1.242,0,0,0-1.306,1.3c0,.609,0,1.217,0,1.826a.933.933,0,1,1-1.864.008c0-.635,0-1.269,0-1.9A3.1,3.1,0,0,1,3.113,0Q9.95,0,16.788,0a3.1,3.1,0,0,1,3.077,2.669.44.44,0,0,0,.033.088V17.134a.639.639,0,0,0-.035.106A3.115,3.115,0,0,1,17.531,19.8c-.13.032-.261.06-.391.089Z" transform="translate(0 0)" fill="#fff"/>
    <path id="Path_9642" data-name="Path 9642" d="M9.049,144.931c-.079-.084-.125-.135-.174-.184-.572-.572-1.148-1.141-1.715-1.717a.932.932,0,1,1,1.337-1.3q1.205,1.211,2.416,2.417c.339.339.679.676,1.015,1.017a.927.927,0,0,1,0,1.394Q10.21,148.285,8.484,150a.932.932,0,1,1-1.313-1.32c.565-.57,1.135-1.135,1.7-1.7.049-.049.1-.1.178-.186H1.158a.942.942,0,0,1-.951-.654.93.93,0,0,1,.89-1.209c.815-.007,1.631,0,2.446,0H9.049Z" transform="translate(-0.157 -135.916)" fill="#fff"/>
  </g>
</svg>
