<svg xmlns="http://www.w3.org/2000/svg" width="14.808" height="18" viewBox="0 0 14.808 18">
  <path id="pinterest" d="M4.3,7.137a3.125,3.125,0,0,1,.608-1.943,1.8,1.8,0,0,1,1.476-.8,1.328,1.328,0,0,1,1.107.465A1.778,1.778,0,0,1,7.86,6a5.427,5.427,0,0,1-.13,1.056q-.174.592-.434,1.436-.261.8-.391,1.31a1.506,1.506,0,0,0,.326,1.458,1.8,1.8,0,0,0,1.411.613,2.867,2.867,0,0,0,2.5-1.669,7.857,7.857,0,0,0,.977-4.035,3.906,3.906,0,0,0-1.194-2.958A4.679,4.679,0,0,0,7.556,2.067a5.311,5.311,0,0,0-3.93,1.5,4.928,4.928,0,0,0-1.5,3.613,3.2,3.2,0,0,0,.738,2.113.577.577,0,0,1,.174.592,5.679,5.679,0,0,0-.217.845A.469.469,0,0,1,2.584,11a.512.512,0,0,1-.326.021A3.236,3.236,0,0,1,.564,9.462,5.473,5.473,0,0,1,0,6.926,5.957,5.957,0,0,1,.3,5.067a6.179,6.179,0,0,1,.955-1.8A7.606,7.606,0,0,1,2.823,1.729,7.306,7.306,0,0,1,5.037.652,9.534,9.534,0,0,1,7.86.25,7.885,7.885,0,0,1,10.7.757a6.6,6.6,0,0,1,2.215,1.352,6.119,6.119,0,0,1,1.39,1.965,5.6,5.6,0,0,1,.5,2.3,8.142,8.142,0,0,1-1.65,5.239A5.2,5.2,0,0,1,8.9,13.686a3.588,3.588,0,0,1-1.628-.38,2.375,2.375,0,0,1-1.064-.929q-.651,2.451-.782,2.915A9.754,9.754,0,0,1,3.865,18.25H3.127A10.028,10.028,0,0,1,3.214,14.7L4.647,8.87A3.949,3.949,0,0,1,4.3,7.137Z" transform="translate(0 -0.25)" fill="#fff"/>
</svg>
