<svg xmlns="http://www.w3.org/2000/svg" width="13.743" height="16.706" viewBox="0 0 13.743 16.706">
  <path id="pinterest" d="M3.99,6.642a2.9,2.9,0,0,1,.564-1.8,1.673,1.673,0,0,1,1.37-.745,1.232,1.232,0,0,1,1.028.432,1.65,1.65,0,0,1,.342,1.059,5.037,5.037,0,0,1-.121.98q-.161.549-.4,1.333-.242.745-.363,1.216a1.4,1.4,0,0,0,.3,1.353,1.67,1.67,0,0,0,1.31.569,2.661,2.661,0,0,0,2.317-1.549,7.292,7.292,0,0,0,.907-3.745A3.625,3.625,0,0,0,10.136,3,4.342,4.342,0,0,0,7.012,1.936,4.929,4.929,0,0,0,3.365,3.328a4.573,4.573,0,0,0-1.39,3.353A2.968,2.968,0,0,0,2.66,8.642a.535.535,0,0,1,.161.549,5.271,5.271,0,0,0-.2.784.435.435,0,0,1-.221.255.475.475,0,0,1-.3.02A3,3,0,0,1,.524,8.8,5.08,5.08,0,0,1,0,6.446,5.529,5.529,0,0,1,.282,4.721a5.735,5.735,0,0,1,.886-1.667A7.059,7.059,0,0,1,2.62,1.623a6.78,6.78,0,0,1,2.055-1A8.848,8.848,0,0,1,7.294.25a7.318,7.318,0,0,1,2.64.471,6.123,6.123,0,0,1,2.055,1.255A5.679,5.679,0,0,1,13.279,3.8a5.2,5.2,0,0,1,.464,2.137A7.557,7.557,0,0,1,12.211,10.8a4.824,4.824,0,0,1-3.95,1.921,3.33,3.33,0,0,1-1.511-.353,2.2,2.2,0,0,1-.987-.862q-.6,2.274-.725,2.706a9.053,9.053,0,0,1-1.451,2.745H2.9a9.307,9.307,0,0,1,.081-3.294L4.312,8.25A3.665,3.665,0,0,1,3.99,6.642Z" transform="translate(0 -0.25)" fill="#e60c35"/>
</svg>
