<svg id="Group_6638" data-name="Group 6638" xmlns="http://www.w3.org/2000/svg" xmlns:xlink="http://www.w3.org/1999/xlink" width="18.15" height="18.165" viewBox="0 0 18.15 18.165">
  <defs>
    <clipPath id="clip-path">
      <rect id="Rectangle_1716" data-name="Rectangle 1716" width="18.15" height="18.165" fill="#fff"/>
    </clipPath>
  </defs>
  <g id="Group_6637" data-name="Group 6637" clip-path="url(#clip-path)">
    <path id="Path_47532" data-name="Path 47532" d="M0,6.888A7.753,7.753,0,0,1,2.795,1.6,7.384,7.384,0,0,1,9.471.314c.708.222,2.588.8,1.859,1.889a.877.877,0,0,1-1.159.251A6.913,6.913,0,0,0,8.384,1.8,5.632,5.632,0,0,0,3.04,3.745,5.7,5.7,0,0,0,4.924,12.5a5.726,5.726,0,0,0,8.123-5.279,5.493,5.493,0,0,0-.423-1.983c-.214-.511-.687-1.06-.277-1.605a.848.848,0,0,1,1.277-.088,4.06,4.06,0,0,1,.784,1.6,7.515,7.515,0,0,1-1.254,6.82c.289.289.585.767.994.757a3.008,3.008,0,0,1,1.184.022,6.452,6.452,0,0,1,2.193,1.892,2.072,2.072,0,0,1,.458,2.29,1.958,1.958,0,0,1-.63.832,4.326,4.326,0,0,1-1,.414h-.5a2.719,2.719,0,0,1-1.575-.973c-.31-.332-.639-.648-.963-.966a2.056,2.056,0,0,1-.584-2.153.189.189,0,0,0-.026-.154c-.243-.257-.493-.506-.733-.75a.413.413,0,0,0-.056.022c-.025.016-.048.034-.072.052a7.08,7.08,0,0,1-6.584,1.19A7.172,7.172,0,0,1,.14,8.786c-.066-.3-.094-.6-.14-.906V6.888m14.728,7.444a.388.388,0,0,0-.366.225c-.174.4.62.929.867,1.176.227.226.675.913,1.035.695.527-.319-.19-.847-.417-1.075a6,6,0,0,0-1.12-1.021" transform="translate(0 0)" fill="#fff"/>
  </g>
</svg>
