<svg xmlns="http://www.w3.org/2000/svg" width="20" height="16" viewBox="0 0 20 16">
  <path id="twitter" d="M20.269,1.9a8.509,8.509,0,0,1-2.056,2.087q.012.175.012.525a11.312,11.312,0,0,1-.482,3.244,11.645,11.645,0,0,1-1.465,3.106,12.266,12.266,0,0,1-2.342,2.632,10.461,10.461,0,0,1-3.274,1.825,12.163,12.163,0,0,1-4.1.681A11.509,11.509,0,0,1,.269,14.188a8.9,8.9,0,0,0,.99.05,8.1,8.1,0,0,0,5.088-1.725,4.037,4.037,0,0,1-2.386-.806A3.945,3.945,0,0,1,2.515,9.712a5.291,5.291,0,0,0,.774.062,4.308,4.308,0,0,0,1.078-.137A4.042,4.042,0,0,1,2.014,8.243a3.863,3.863,0,0,1-.932-2.568v-.05a4.111,4.111,0,0,0,1.853.512A4.054,4.054,0,0,1,1.6,4.7a3.893,3.893,0,0,1-.5-1.925A3.909,3.909,0,0,1,1.665.738,11.577,11.577,0,0,0,5.4,3.719a11.561,11.561,0,0,0,4.714,1.243,4.42,4.42,0,0,1-.1-.925,3.862,3.862,0,0,1,1.2-2.856A3.98,3.98,0,0,1,14.114,0a3.98,3.98,0,0,1,2.995,1.275A8.1,8.1,0,0,0,19.71.3a3.934,3.934,0,0,1-1.8,2.225,8.268,8.268,0,0,0,2.36-.625Z" transform="translate(-0.269)" fill="#fff"/>
</svg>
