<svg xmlns="http://www.w3.org/2000/svg" width="18.562" height="14.849" viewBox="0 0 18.562 14.849">
  <path id="twitter" d="M18.831,1.763A7.9,7.9,0,0,1,16.923,3.7q.012.162.012.487A10.5,10.5,0,0,1,16.487,7.2a10.807,10.807,0,0,1-1.36,2.883,11.384,11.384,0,0,1-2.173,2.442,9.708,9.708,0,0,1-3.039,1.694,11.289,11.289,0,0,1-3.8.632A10.681,10.681,0,0,1,.269,13.167a8.26,8.26,0,0,0,.919.046,7.518,7.518,0,0,0,4.722-1.6A3.747,3.747,0,0,1,3.7,10.865,3.661,3.661,0,0,1,2.354,9.014a4.91,4.91,0,0,0,.719.058,4,4,0,0,0,1-.127A3.752,3.752,0,0,1,1.889,7.651a3.585,3.585,0,0,1-.865-2.384V5.22a3.815,3.815,0,0,0,1.72.475A3.763,3.763,0,0,1,1.506,4.362a3.613,3.613,0,0,1-.46-1.787A3.628,3.628,0,0,1,1.565.685,10.745,10.745,0,0,0,5.033,3.451,10.73,10.73,0,0,0,9.409,4.605a4.1,4.1,0,0,1-.094-.858A3.584,3.584,0,0,1,10.427,1.1,3.694,3.694,0,0,1,13.118,0,3.694,3.694,0,0,1,15.9,1.183a7.514,7.514,0,0,0,2.414-.9A3.651,3.651,0,0,1,16.64,2.343a7.674,7.674,0,0,0,2.191-.58Z" transform="translate(-0.269)" fill="#e60c35"/>
</svg>
