<svg xmlns="http://www.w3.org/2000/svg" width="40.544" height="75.31" viewBox="0 0 40.544 75.31">
  <g id="Layer_2" data-name="Layer 2" transform="translate(1.951) rotate(11)">
    <g id="Layer_1" data-name="Layer 1" transform="translate(0 0)">
      <path id="Path_8494" data-name="Path 8494" d="M1.686,17.484a11.4,11.4,0,0,1,3.821-15.7A11.489,11.489,0,0,1,21.358,5.274a11.391,11.391,0,0,1-3.967,15.664A11.307,11.307,0,0,1,1.682,17.484" transform="translate(24.987 44.654)" fill="#e1003e"/>
      <path id="Path_8495" data-name="Path 8495" d="M1.066,11.3A7.407,7.407,0,0,1,3.58,1.166a7.35,7.35,0,0,1,10.2,2.239,7.424,7.424,0,0,1-2.521,10.138A7.481,7.481,0,0,1,1.066,11.3" transform="translate(8.519 22.498)" fill="#e1003e"/>
      <path id="Path_8496" data-name="Path 8496" d="M.744,7.876A5.145,5.145,0,0,1,2.49.832a5.177,5.177,0,0,1,7.173,1.5A5.175,5.175,0,0,1,7.828,9.43,5.147,5.147,0,0,1,.741,7.874" fill="#e1003e"/>
    </g>
  </g>
</svg>
